<svg xmlns="http://www.w3.org/2000/svg" width="1792" height="1792" id="discover"><path d="M243.444 792.111q0 39.667-28 65.333-22.555 20.223-69.222 20.223H133V706.556h13.222q47.445 0 69.222 21 28 24.11 28 64.555zm1381.334-50.555Q1624.778 782 1575 782h-14.778v-78.556h15.556q49 0 49 38.112zM295.556 792.11q0-57.555-38.89-93.722-38.888-36.167-100.333-36.167H82.444v259h73.89q57.555 0 92.555-29.555Q295.556 852 295.556 792.11zm23.333 129.111h50.555v-259H318.89v259zm248.889-78.555q0-31.111-15.945-48.223-15.944-17.11-58.722-32.666Q470.556 754 462.39 747q-8.167-7-8.167-17.889 0-12.444 10.5-20.611t26.834-8.167q22.555 0 41.222 21l26.444-34.222Q527.333 658.333 483 658.333q-34.222 0-57.556 21.39-23.333 21.388-23.333 52.5 0 27.221 14 43.166 14 15.944 49.778 28.389 28.778 10.11 35 14.778 14.778 9.333 14.778 26.444 0 15.556-10.89 26.056-10.888 10.5-28 10.5-37.333 0-55.221-34.223l-32.667 31.111q34.222 49.778 89.444 49.778 39.667 0 64.556-23.722 24.889-23.722 24.889-61.833zm216.222 70v-59.89q-28.778 28.779-60.667 28.779-38.11 0-62.61-25.278t-24.5-64.167q0-37.333 24.5-63.389 24.5-26.055 60.277-26.055 33.444 0 63 29.555v-59.889q-31.111-15.555-62.222-15.555-57.556 0-97.611 39.278-40.056 39.277-40.056 96.055 0 56.778 39.667 96.056 39.666 39.277 97.222 39.277 32.667 0 63-14.777zm958.222 469.777V972.556q-50.555 31.11-112.389 65.333-61.833 34.222-184.722 91-122.889 56.778-256.278 106.944-133.389 50.167-324.722 104.611-191.333 54.445-392 91.778h1220.333q20.223 0 35-14.778 14.778-14.777 14.778-35zm-661.889-588.777q0-58.334-41.222-99.556-41.222-41.222-99.555-41.222-58.334 0-99.556 41.222-41.222 41.222-41.222 99.556 0 58.333 41.222 99.555 41.222 41.222 99.556 41.222 58.333 0 99.555-41.222 41.222-41.222 41.222-99.555zm118.223 134.555 112-266h-55.223l-70 174.222-69.222-174.222h-55.222l110.444 266h27.223zm134.555-7h143.111v-43.555h-92.555v-70h89.444V764.11h-89.444v-57.555h92.555v-44.334h-143.11v259zm304.111 0h62.222l-81.666-108.889q59.11-12.444 59.11-73.11 0-36.556-24.11-56.779-24.111-20.222-67.667-20.222h-75.444v259h50.555V817.778h7zM1792 391.556v986.222q0 43.555-29.944 73.889Q1732.11 1482 1689.333 1482H102.667q-42.778 0-72.723-30.333Q0 1421.333 0 1377.777V391.557Q0 348 29.944 317.666q29.945-30.333 72.723-30.333h1586.666q42.778 0 72.723 30.334Q1792 348 1792 391.556Z"></path></svg>